HIERARCHY
ROOT Hips
{
	OFFSET -0.001795 -0.223333 0.028219
	CHANNELS 6 Xposition Yposition Zposition Zrotation Yrotation Xrotation 
	JOINT LeftUpLeg
	{
		OFFSET 0.069520 -0.091406 -0.006815
		CHANNELS 3 Zrotation Yrotation Xrotation
		JOINT LeftLeg
		{
			OFFSET 0.034277 -0.375199 -0.004496
			CHANNELS 3 Zrotation Yrotation Xrotation
			JOINT LeftFoot
			{
				OFFSET -0.013596 -0.397961 -0.043693
				CHANNELS 3 Zrotation Yrotation Xrotation
				JOINT LeftToe
				{
					OFFSET 0.026358 -0.055791 0.119288
					CHANNELS 3 Zrotation Yrotation Xrotation
					End Site
					{
						OFFSET 0.000000 0.000000 0.000000
					}
				}
			}
		}
	}
	JOINT RightUpLeg
	{
		OFFSET -0.067670 -0.090522 -0.004320
		CHANNELS 3 Zrotation Yrotation Xrotation
		JOINT RightLeg
		{
			OFFSET -0.038290 -0.382569 -0.008850
			CHANNELS 3 Zrotation Yrotation Xrotation
			JOINT RightFoot
			{
				OFFSET 0.015774 -0.398415 -0.042312
				CHANNELS 3 Zrotation Yrotation Xrotation
				JOINT RightToe
				{
					OFFSET -0.025372 -0.048144 0.123348
					CHANNELS 3 Zrotation Yrotation Xrotation
					End Site
					{
						OFFSET 0.000000 0.000000 0.000000
					}
				}
			}
		}
	}
	JOINT Spine
	{
		OFFSET -0.002533 0.108963 -0.026696
		CHANNELS 3 Zrotation Yrotation Xrotation
		JOINT Spine1
		{
			OFFSET 0.005487 0.135180 0.001092
			CHANNELS 3 Zrotation Yrotation Xrotation
			JOINT Spine2
			{
				OFFSET 0.001457 0.052922 0.025425
				CHANNELS 3 Zrotation Yrotation Xrotation
				JOINT Neck
				{
					OFFSET -0.002778 0.213870 -0.042857
					CHANNELS 3 Zrotation Yrotation Xrotation
					JOINT Head
					{
						OFFSET 0.005152 0.064970 0.051349
						CHANNELS 3 Zrotation Yrotation Xrotation
						End Site
						{
							OFFSET 0.000000 0.000000 0.000000
						}
					}
				}
				JOINT LeftShoulder
				{
					OFFSET 0.078845 0.121749 -0.034090
					CHANNELS 3 Zrotation Yrotation Xrotation
					JOINT LeftArm
					{
						OFFSET 0.090977 0.030469 -0.008868
						CHANNELS 3 Zrotation Yrotation Xrotation
						JOINT LeftForeArm
						{
							OFFSET 0.259612 -0.012772 -0.027456
							CHANNELS 3 Zrotation Yrotation Xrotation
							JOINT LeftHand
							{
								OFFSET 0.249234 0.008986 -0.001171
								CHANNELS 3 Zrotation Yrotation Xrotation
								End Site
								{
									OFFSET 0.000000 0.000000 0.000000
								}
							}
						}
					}
				}
				JOINT RightShoulder
				{
					OFFSET -0.081759 0.118833 -0.038615
					CHANNELS 3 Zrotation Yrotation Xrotation
					JOINT RightArm
					{
						OFFSET -0.096012 0.032551 -0.009143
						CHANNELS 3 Zrotation Yrotation Xrotation
						JOINT RightForeArm
						{
							OFFSET -0.253742 -0.013329 -0.021401
							CHANNELS 3 Zrotation Yrotation Xrotation
							JOINT RightHand
							{
								OFFSET -0.255298 0.007772 -0.005559
								CHANNELS 3 Zrotation Yrotation Xrotation
								End Site
								{
									OFFSET 0.000000 0.000000 0.000000
								}
							}
						}
					}
				}
			}
		}
	}
}
MOTION
Frames: 9
Frame Time: 0.050000
0.010502 0.969352 0.015750 -0.002902 -7.043883 -1.435873 -1.739114 1.479465 12.202186 2.145018 0.475335 -12.489039 5.845533 14.193751 20.621822 0.000000 0.000000 0.000000 -1.764918 -0.637112 9.780924 -0.217354 -0.326542 -9.769080 -1.121289 -9.992382 18.986798 0.000000 0.000000 0.000000 4.147079 -0.585869 7.880159 -4.311210 1.543468 -27.918791 -1.038529 9.306469 29.677244 9.512754 -3.812531 -22.616490 0.000000 0.000000 0.000000 18.223435 1.526548 0.867033 -13.420716 -8.788945 -1.643319 12.977572 -5.607856 -0.507812 0.000000 0.000000 0.000000 -1.388172 -12.543345 -4.486062 8.243490 9.563666 -1.201926 -7.141694 10.020619 -0.101084 0.000000 0.000000 0.000000 
0.010535 0.969926 0.015422 -0.000686 -6.978718 -1.578899 -1.533115 1.454523 12.197159 2.079554 0.448576 -12.087195 5.668390 13.958818 20.627301 0.000000 0.000000 0.000000 -1.608067 -0.652768 9.702249 -0.385802 -0.321741 -9.637131 -1.016131 -9.850499 19.098268 0.000000 0.000000 0.000000 4.177335 -0.602260 8.118688 -4.164395 1.512016 -27.761103 -1.208789 9.260250 29.346354 9.652518 -3.886998 -22.705821 0.000000 0.000000 0.000000 18.733382 1.425650 0.928167 -12.631493 -8.251362 -1.586253 12.599742 -5.034559 -0.442154 0.000000 0.000000 0.000000 -2.007672 -12.420585 -4.375091 7.461515 9.160162 -1.139021 -7.587993 10.767364 -0.156527 0.000000 0.000000 0.000000 
0.010472 0.970260 0.015028 -0.007002 -7.268248 -1.619907 -1.796974 1.500966 12.286801 2.638596 0.445195 -12.120693 5.527179 13.746629 20.864924 0.000000 0.000000 0.000000 -1.586666 -0.632392 9.449145 -0.400631 -0.312356 -9.400512 -1.009616 -9.833908 18.895288 0.000000 0.000000 0.000000 4.207412 -0.602751 8.128923 -4.118426 1.504257 -28.095280 -1.161835 9.488282 29.848944 9.658035 -3.856876 -22.984883 0.000000 0.000000 0.000000 18.792638 1.470226 0.892636 -11.410987 -7.775556 -1.505480 12.542120 -4.667983 -0.414425 0.000000 0.000000 0.000000 -2.380340 -12.138386 -4.246972 6.679366 8.960560 -1.092415 -8.434563 11.126109 -0.232816 0.000000 0.000000 0.000000 
0.010416 0.970978 0.014601 -0.102119 -6.781040 -1.507769 -1.614813 1.458680 12.199702 2.486700 0.431816 -11.945599 5.242774 13.370380 20.381180 0.000000 0.000000 0.000000 -0.895624 -0.697009 9.081864 -0.962282 -0.302840 -9.222582 -1.413677 -10.327189 18.591731 0.000000 0.000000 0.000000 4.250823 -0.631048 8.431704 -4.159856 1.511778 -27.853544 -1.470794 8.944555 29.376666 9.957593 -4.023955 -23.331273 0.000000 0.000000 0.000000 18.880131 2.385835 0.715759 -9.845023 -7.950450 -1.347340 12.569272 -4.403539 -0.392896 0.000000 0.000000 0.000000 -2.585811 -12.278123 -4.263740 5.686628 8.905174 -1.014128 -9.347633 11.876682 -0.344241 0.000000 0.000000 0.000000 
0.010398 0.971504 0.013930 -0.001925 -6.216167 -1.323500 -1.536882 1.386755 11.787278 2.015618 0.414626 -11.620856 5.145979 13.266417 20.021974 0.000000 0.000000 0.000000 -0.653287 -0.656127 8.079289 -1.131974 -0.263073 -8.183283 -1.836006 -10.817965 18.134889 0.000000 0.000000 0.000000 3.964989 -0.619006 8.484011 -3.929008 1.467488 -28.031837 -1.555003 8.854375 29.960895 10.413242 -4.117257 -24.373359 0.000000 0.000000 0.000000 18.913874 2.608578 0.689499 -8.920595 -7.858165 -1.275623 13.299432 -4.216414 -0.424628 0.000000 0.000000 0.000000 -3.162451 -12.943078 -4.466095 5.336030 8.398125 -0.990686 -10.349706 12.731705 -0.465487 0.000000 0.000000 0.000000 
0.010463 0.972508 0.013126 -0.065081 -5.189916 -1.269959 -1.175363 1.317572 11.712615 1.891584 0.401550 -11.463462 5.090762 13.264776 19.499813 0.000000 0.000000 0.000000 -0.350774 -0.678957 7.790077 -1.147648 -0.260453 -8.036671 -2.764838 -12.121494 17.969370 0.000000 0.000000 0.000000 4.342306 -0.699498 9.127597 -4.455991 1.584918 -28.630568 -1.803547 8.394074 30.109272 11.274818 -4.323154 -26.137447 0.000000 0.000000 0.000000 19.508777 3.051689 0.681500 -8.462707 -8.805600 -1.232897 14.417660 -4.416679 -0.510650 0.000000 0.000000 0.000000 -3.113439 -13.759445 -4.779399 4.686982 8.899716 -0.964012 -11.386764 12.510282 -0.532530 0.000000 0.000000 0.000000 
0.010546 0.971982 0.012173 0.021274 -4.503719 -1.042427 -0.954947 1.168299 10.735212 0.871703 0.360534 -10.377908 5.075273 13.191338 18.325378 0.000000 0.000000 0.000000 -0.411164 -0.578366 6.585496 -0.731753 -0.216804 -6.592228 -3.548810 -13.133029 17.121232 0.000000 0.000000 0.000000 4.040819 -0.671565 8.971064 -3.960893 1.490029 -27.990088 -2.434608 8.615689 30.043421 11.682746 -4.344691 -26.816903 0.000000 0.000000 0.000000 19.316152 3.461805 0.713136 -8.032132 -9.189853 -1.196933 16.483476 -5.580608 -0.797169 0.000000 0.000000 0.000000 -3.299750 -13.981892 -4.882259 5.318670 8.732306 -1.015596 -13.165465 13.499858 -0.728880 0.000000 0.000000 0.000000 
0.010547 0.971312 0.011523 0.088479 -4.786621 -1.217478 -0.948195 1.093492 10.045524 0.847011 0.325391 -9.621138 5.464598 13.640084 17.573500 0.000000 0.000000 0.000000 -1.363202 -0.511527 6.843903 0.543138 -0.284845 -7.231767 -3.945837 -14.062486 18.725039 0.000000 0.000000 0.000000 3.611279 -0.653425 9.286893 -4.320794 1.561922 -27.703187 -2.208241 8.451337 30.074472 12.355381 -4.300796 -29.512187 0.000000 0.000000 0.000000 19.624032 3.138694 0.721880 -9.847204 -8.403752 -1.359985 20.237061 -7.930136 -1.398258 0.000000 0.000000 0.000000 -3.026536 -13.919532 -4.866041 6.140783 8.799993 -1.072536 -14.454467 15.420934 -1.035626 0.000000 0.000000 0.000000 
0.010510 0.970213 0.011514 0.192244 -4.459344 -1.388328 -0.973538 0.943910 8.749403 0.646849 0.255179 -7.973979 5.814953 14.018664 15.843230 0.000000 0.000000 0.000000 -1.485226 -0.479041 6.503993 0.974923 -0.283923 -6.554918 -4.698050 -15.077563 17.894531 0.000000 0.000000 0.000000 3.410442 -0.694017 10.201083 -4.879301 1.677143 -28.566620 -2.443857 8.286549 29.824978 12.589759 -4.253065 -30.380405 0.000000 0.000000 0.000000 19.471976 3.756595 0.615248 -10.776273 -9.253264 -1.428388 23.831508 -11.777163 -2.463386 0.000000 0.000000 0.000000 -1.483705 -14.111427 -5.101616 7.194085 8.870039 -1.160642 -17.254777 19.504265 -1.815860 0.000000 0.000000 0.000000 
